<svg width="54" height="50" fill="none" xmlns="http://www.w3.org/2000/svg"><path d="M29.214 19.007c.32 0 .627.05.923.134l5.523-6.62c.353-.423 1.007-.501 1.434-.145.416.34.473.947.126 1.359l-5.46 6.547a3 3 0 0 1 .592 1.787c0 1.242-.763 2.316-1.85 2.795h21.424c.786 0 1.424-.624 1.424-1.392V5.852c0-.769-.638-1.393-1.424-1.393H24.711c-.786 0-1.424.624-1.424 1.392v11.57l1.287 1.591h4.64v-.005ZM11.46 11.402c3.22 0 5.831-2.552 5.831-5.701 0-3.149-2.61-5.701-5.83-5.701S5.63 2.552 5.63 5.701c0 3.149 2.61 5.7 5.83 5.7Z" fill="#1B3365"/><path d="M17.44 48.608c0 .768-.638 1.392-1.424 1.392h-2.391c-.786 0-1.424-.624-1.424-1.392v-11.67a.755.755 0 0 0-.763-.745.755.755 0 0 0-.762.746v11.613c0 .797-.667 1.448-1.48 1.448h-2.34c-.787 0-1.424-.624-1.424-1.392l-.012-28.17a.698.698 0 0 0-.706-.691.698.698 0 0 0-.706.69v10.834c0 .769-.637 1.392-1.423 1.392H1.423C.638 32.663 0 32.04 0 31.271V16.418c0-1.765 1.463-3.19 3.262-3.19h12.965c1.39 0 2.704.623 3.57 1.686l3.484 4.298.735.908s3.302 0 5.204.005c.785 0 1.423.624 1.423 1.392v1.108c0 .768-.638 1.392-1.423 1.392h-6.16a2 2 0 0 1-1.56-.74l-2.597-3.263a.716.716 0 0 0-.558-.267h-.177a.698.698 0 0 0-.706.69l-.022 28.171Z" fill="#1B3365"/></svg>