<svg width="54" height="50" viewBox="0 0 54 50" fill="none" xmlns="http://www.w3.org/2000/svg">
<path d="M29.2144 19.007C29.5333 19.007 29.8407 19.0571 30.1368 19.1406L35.6596 12.521C36.0126 12.0979 36.6674 12.0199 37.0944 12.3762C37.5101 12.7159 37.567 13.3227 37.2197 13.7347L31.7595 20.2819C32.1296 20.7829 32.3516 21.401 32.3516 22.0691C32.3516 23.3106 31.5887 24.3851 30.5012 24.8638H51.9264C52.7121 24.8638 53.3498 24.2403 53.3498 23.472V5.85131C53.3498 5.08302 52.7121 4.45947 51.9264 4.45947H24.7108C23.925 4.45947 23.2874 5.08302 23.2874 5.85131V17.4203L24.5741 19.0125H29.2144V19.007Z" fill="#1B3365"/>
<path d="M11.4609 11.4019C14.6809 11.4019 17.2912 8.84952 17.2912 5.70097C17.2912 2.55241 14.6809 0 11.4609 0C8.24093 0 5.63062 2.55241 5.63062 5.70097C5.63062 8.84952 8.24093 11.4019 11.4609 11.4019Z" fill="#1B3365"/>
<path d="M17.4396 48.608C17.4396 49.3764 16.8019 49.9999 16.0162 49.9999H13.6249C12.8392 49.9999 12.2015 49.3764 12.2015 48.608V36.9389C12.2015 36.5269 11.8599 36.1929 11.4385 36.1929C11.0172 36.1929 10.6756 36.5269 10.6756 36.9389V48.5524C10.6756 49.3486 10.0094 49.9999 9.19523 49.9999H6.85514C6.06942 49.9999 5.43173 49.3764 5.43173 48.608L5.42035 20.4373C5.42035 20.0587 5.1072 19.747 4.71434 19.747C4.32717 19.747 4.00832 20.0532 4.00832 20.4373V31.2713C4.00832 32.0396 3.37064 32.6632 2.58491 32.6632H1.42341C0.637688 32.6632 0 32.0396 0 31.2713V16.4176C0 14.6528 1.46327 13.2275 3.26246 13.2275H16.2269C17.6161 13.2275 18.9314 13.8511 19.7968 14.9144L23.2812 19.2124L24.0157 20.1199C24.0157 20.1199 27.318 20.1199 29.2197 20.1255C30.0054 20.1255 30.6431 20.749 30.6431 21.5173V22.6252C30.6431 23.3935 30.0054 24.0171 29.2197 24.0171H23.0592C22.45 24.0171 21.875 23.7443 21.4992 23.2766L18.9029 20.0141C18.7719 19.8471 18.5613 19.7468 18.3449 19.7468H18.1684C17.7812 19.7468 17.4625 20.0531 17.4625 20.4371L17.4396 48.608Z" fill="#1B3365"/>
</svg>
